<svg id="Layer_1" data-name="Layer 1" xmlns="http://www.w3.org/2000/svg" width="539.5" height="661" viewBox="0 0 539.5 661">
  <defs>
    <style>
      .cls-1 {
        fill: #c1272d;
      }

      .cls-2 {
        fill: #fff;
      }

      .cls-3 {
        fill: #b2b2b2;
      }

      .cls-4 {
        fill: #991d26;
      }
    </style>
  </defs>
  <g>
    <g>
      <path class="cls-1" d="M539.5,107.7v94.7H0V107.7A61.2,61.2,0,0,1,61.1,46.5H478.3A61.2,61.2,0,0,1,539.5,107.7Z"/>
      <path class="cls-2" d="M539.5,202.4V528.5a61.1,61.1,0,0,1-61.2,61.1H61.1A61.1,61.1,0,0,1,0,528.5V202.4Z"/>
      <g>
        <rect class="cls-3" x="71.8" y="238.8" width="79.3" height="79.3"/>
        <rect class="cls-3" x="177.3" y="238.8" width="79.3" height="79.3"/>
        <rect class="cls-3" x="282.8" y="238.8" width="79.3" height="79.3"/>
        <rect class="cls-3" x="388.3" y="238.8" width="79.3" height="79.3"/>
      </g>
      <g>
        <rect class="cls-3" x="71.8" y="340.6" width="79.3" height="79.3"/>
        <rect class="cls-1" x="177.3" y="340.6" width="79.3" height="79.3"/>
        <rect class="cls-3" x="282.8" y="340.6" width="79.3" height="79.3"/>
        <rect class="cls-3" x="388.3" y="340.6" width="79.3" height="79.3"/>
        <g>
          <path class="cls-2" d="M195.8,378.4l.3,1.1.2.5H198l-.8.7-.5.3.2.6.3,1.1-.9-.7-.5-.3-.5.3-.8.7.3-1.1.2-.6-.5-.3-.9-.7h1.7l.2-.5.3-1.1m0-2.8-1.1,3.6h-3.8l3.1,2.2-1.2,3.5,3-2.2,3,2.2-1.1-3.5,3-2.2H197l-1.2-3.6Z"/>
          <path class="cls-2" d="M206.4,378.4l.3,1.1.2.5h1.7l-.8.7-.5.3v.6l.4,1.1-.9-.7-.5-.3-.5.3-.9.7.4-1.1.2-.6-.5-.3-.9-.7h1.7l.2-.5.3-1.1m0-2.8-1.1,3.6h-3.8l3,2.2-1.1,3.5,3-2.2,3,2.2-1.1-3.5,3-2.2h-3.7l-1.2-3.6Z"/>
          <path class="cls-2" d="M217,378.4l.3,1.1.2.5h1.7l-.9.7-.5.3.2.6.4,1.1-.9-.7-.5-.3-.5.3-.9.7.4-1.1V381l-.5-.3-.8-.7h1.7l.2-.5.3-1.1m0-2.8-1.2,3.6h-3.7l3,2.2-1.1,3.5,3-2.2,3,2.2-1.1-3.5,3-2.2h-3.8l-1.1-3.6Z"/>
          <path class="cls-2" d="M227.6,378.4l.3,1.1.2.5h1.7l-.9.7-.5.3.2.6.3,1.1-.8-.7-.5-.3-.5.3-.9.7.3-1.1.2-.6-.5-.3-.8-.7h1.7v-.5l.4-1.1m0-2.8-1.2,3.6h-3.7l3,2.2-1.1,3.5,3-2.2,3,2.2-1.2-3.5,3-2.2h-3.7l-1.1-3.6Z"/>
          <path class="cls-2" d="M238.2,378.4l.3,1.1.2.5h1.7l-.9.7-.5.3.2.6.3,1.1-.8-.7-.5-.3-.5.3-.9.7.3-1.1.2-.6-.5-.3-.9-.7h1.7l.2-.5.4-1.1m0-2.8-1.2,3.6h-3.7l3,2.2-1.2,3.5,3.1-2.2,3,2.2-1.2-3.5,3-2.2h-3.7l-1.1-3.6Z"/>
        </g>
      </g>
      <g>
        <rect class="cls-3" x="71.8" y="442.5" width="79.3" height="79.3"/>
        <rect class="cls-3" x="177.3" y="442.5" width="79.3" height="79.3"/>
        <rect class="cls-3" x="282.8" y="442.5" width="79.3" height="79.3"/>
        <rect class="cls-3" x="388.3" y="442.5" width="79.3" height="79.3"/>
      </g>
      <circle class="cls-4" cx="110.4" cy="124.4" r="38.1"/>
      <rect class="cls-3" x="87.1" width="46.5" height="140.98" rx="23.3"/>
      <circle class="cls-4" cx="428" cy="124.4" r="38.1"/>
      <rect class="cls-3" x="404.7" width="46.5" height="140.98" rx="23.3"/>
    </g>
    <g>
      <path class="cls-2" d="M27.6,660,17.5,642.5H9.9V660H0V609.7H20.1A16.1,16.1,0,0,1,32,614.6a16.2,16.2,0,0,1,4.9,11.8,14.9,14.9,0,0,1-2.7,8.6,16.3,16.3,0,0,1-7,6l11.1,19ZM9.9,619v14.8H20.1a6.3,6.3,0,0,0,4.8-2.1,7.5,7.5,0,0,0,2-5.3,7.3,7.3,0,0,0-2-5.3,6.3,6.3,0,0,0-4.8-2.1Z"/>
      <path class="cls-2" d="M76.4,660l-3-9.1h-20l-3,9.1H39.7l17.6-50.3H69.5L87.2,660ZM56.5,641.7H70.3l-6.9-20.6Z"/>
      <path class="cls-2" d="M121.7,609.7v9.5H108.1V660H98.2V619.2H84.7v-9.5Z"/>
      <path class="cls-2" d="M137.2,650.5h21.1V660H127.2V609.7H158v9.5H137.2v10.7h19v9.3h-19Z"/>
      <path class="cls-2" d="M207.1,661c-7.5,0-13.8-2.5-18.7-7.5a25.6,25.6,0,0,1-7.4-18.7c0-7.4,2.4-13.6,7.4-18.6s11.2-7.5,18.7-7.5a25.6,25.6,0,0,1,12.6,3.2,23.1,23.1,0,0,1,9.1,8.7l-8.6,4.9a13.5,13.5,0,0,0-5.3-5.3,16.7,16.7,0,0,0-7.8-1.9,16,16,0,0,0-11.8,4.6,18,18,0,0,0,0,23.8c3,3.1,6.9,4.6,11.8,4.6a15.5,15.5,0,0,0,7.8-1.9,13.3,13.3,0,0,0,5.3-5.2l8.6,4.9a23.5,23.5,0,0,1-9,8.7A26.3,26.3,0,0,1,207.1,661Z"/>
      <path class="cls-2" d="M267,660l-3-9.1H243.9l-3,9.1H230.2l17.6-50.3h12.3L277.8,660Zm-19.9-18.3h13.8L254,621.1Z"/>
      <path class="cls-2" d="M292.6,650.5h19.1V660H282.6V609.7h10Z"/>
      <path class="cls-2" d="M327.3,650.5h21.1V660H317.3V609.7h30.8v9.5H327.3v10.7h19v9.3h-19Z"/>
      <path class="cls-2" d="M384.5,609.7h9.9V660h-7.5l-21.6-30.8V660h-9.9V609.7H363l21.5,30.7Z"/>
      <path class="cls-2" d="M423.7,609.7A22.7,22.7,0,0,1,441,617a26.5,26.5,0,0,1,0,35.7,22.7,22.7,0,0,1-17.3,7.3H403.8V609.7Zm0,40.8a14.1,14.1,0,0,0,10.7-4.3,17.8,17.8,0,0,0,0-22.7,14.1,14.1,0,0,0-10.7-4.3h-10v31.3Z"/>
      <path class="cls-2" d="M485.5,660l-3-9.1h-20l-3.1,9.1H448.7l17.6-50.3h12.3L496.3,660Zm-19.9-18.3h13.8l-6.9-20.6Z"/>
      <path class="cls-2" d="M528.8,660l-10.2-17.5h-7.5V660h-9.9V609.7h20.1A16.6,16.6,0,0,1,538,626.4a14.8,14.8,0,0,1-2.6,8.6,16,16,0,0,1-7.1,6l11.2,19Zm-17.7-41v14.8h10.2a6.3,6.3,0,0,0,4.8-2.1,7.5,7.5,0,0,0,2-5.3,7.3,7.3,0,0,0-2-5.3,6.3,6.3,0,0,0-4.8-2.1Z"/>
    </g>
  </g>
</svg>
